<mxfile host="app.diagrams.net" modified="2024-06-18T16:47:46.254Z" agent="Mozilla/5.0 (Windows NT 10.0; Win64; x64) AppleWebKit/537.36 (KHTML, like Gecko) Chrome/126.0.0.0 Safari/537.36 Edg/126.0.0.0" etag="rTYjs2r6LcSeFMeN6I70" version="24.5.3" type="device">
  <diagram name="Page-1" id="Ebl_KYPBLnMlvYdTwEun">
    <mxGraphModel dx="1644" dy="462" grid="1" gridSize="10" guides="1" tooltips="1" connect="1" arrows="1" fold="1" page="1" pageScale="1" pageWidth="850" pageHeight="1100" math="0" shadow="0">
      <root>
        <mxCell id="0" />
        <mxCell id="1" parent="0" />
        <mxCell id="oUa0HNdVva7IA-kuY4hz-1" value="Pegawai" style="rounded=0;whiteSpace=wrap;html=1;" vertex="1" parent="1">
          <mxGeometry x="28" y="194" width="120" height="60" as="geometry" />
        </mxCell>
        <mxCell id="oUa0HNdVva7IA-kuY4hz-2" value="Id" style="ellipse;whiteSpace=wrap;html=1;" vertex="1" parent="1">
          <mxGeometry x="22" y="84" width="50" height="30" as="geometry" />
        </mxCell>
        <mxCell id="oUa0HNdVva7IA-kuY4hz-3" value="Nama" style="ellipse;whiteSpace=wrap;html=1;" vertex="1" parent="1">
          <mxGeometry x="70" y="64" width="50" height="35" as="geometry" />
        </mxCell>
        <mxCell id="oUa0HNdVva7IA-kuY4hz-4" value="Jabatan" style="ellipse;whiteSpace=wrap;html=1;" vertex="1" parent="1">
          <mxGeometry x="105" y="94" width="60" height="40" as="geometry" />
        </mxCell>
        <mxCell id="oUa0HNdVva7IA-kuY4hz-5" value="Nama" style="ellipse;whiteSpace=wrap;html=1;" vertex="1" parent="1">
          <mxGeometry x="319" y="94" width="60" height="40" as="geometry" />
        </mxCell>
        <mxCell id="oUa0HNdVva7IA-kuY4hz-7" value="" style="endArrow=none;html=1;rounded=0;entryX=0.5;entryY=1;entryDx=0;entryDy=0;" edge="1" parent="1" target="oUa0HNdVva7IA-kuY4hz-2">
          <mxGeometry relative="1" as="geometry">
            <mxPoint x="78" y="194" as="sourcePoint" />
            <mxPoint x="188" y="164" as="targetPoint" />
          </mxGeometry>
        </mxCell>
        <mxCell id="oUa0HNdVva7IA-kuY4hz-8" value="" style="endArrow=none;html=1;rounded=0;entryX=0.373;entryY=0.971;entryDx=0;entryDy=0;entryPerimeter=0;" edge="1" parent="1">
          <mxGeometry relative="1" as="geometry">
            <mxPoint x="79" y="194" as="sourcePoint" />
            <mxPoint x="90.64999999999998" y="97.98500000000001" as="targetPoint" />
          </mxGeometry>
        </mxCell>
        <mxCell id="oUa0HNdVva7IA-kuY4hz-9" value="" style="endArrow=none;html=1;rounded=0;" edge="1" parent="1">
          <mxGeometry relative="1" as="geometry">
            <mxPoint x="78" y="194" as="sourcePoint" />
            <mxPoint x="128" y="134" as="targetPoint" />
          </mxGeometry>
        </mxCell>
        <mxCell id="oUa0HNdVva7IA-kuY4hz-10" value="Proyek" style="rounded=0;whiteSpace=wrap;html=1;" vertex="1" parent="1">
          <mxGeometry x="284" y="194" width="120" height="60" as="geometry" />
        </mxCell>
        <mxCell id="oUa0HNdVva7IA-kuY4hz-11" value="Id" style="ellipse;whiteSpace=wrap;html=1;" vertex="1" parent="1">
          <mxGeometry x="267" y="99" width="50" height="30" as="geometry" />
        </mxCell>
        <mxCell id="oUa0HNdVva7IA-kuY4hz-12" value="" style="endArrow=none;html=1;rounded=0;entryX=0.5;entryY=1;entryDx=0;entryDy=0;exitX=0.5;exitY=0;exitDx=0;exitDy=0;" edge="1" parent="1" source="oUa0HNdVva7IA-kuY4hz-10" target="oUa0HNdVva7IA-kuY4hz-11">
          <mxGeometry relative="1" as="geometry">
            <mxPoint x="247" y="174" as="sourcePoint" />
            <mxPoint x="407" y="174" as="targetPoint" />
          </mxGeometry>
        </mxCell>
        <mxCell id="oUa0HNdVva7IA-kuY4hz-13" value="" style="endArrow=none;html=1;rounded=0;entryX=0.5;entryY=1;entryDx=0;entryDy=0;exitX=0.5;exitY=0;exitDx=0;exitDy=0;" edge="1" parent="1" source="oUa0HNdVva7IA-kuY4hz-10" target="oUa0HNdVva7IA-kuY4hz-5">
          <mxGeometry relative="1" as="geometry">
            <mxPoint x="257" y="164" as="sourcePoint" />
            <mxPoint x="417" y="164" as="targetPoint" />
          </mxGeometry>
        </mxCell>
        <mxCell id="oUa0HNdVva7IA-kuY4hz-14" value="Devisi" style="rounded=0;whiteSpace=wrap;html=1;" vertex="1" parent="1">
          <mxGeometry x="531" y="194" width="120" height="60" as="geometry" />
        </mxCell>
        <mxCell id="oUa0HNdVva7IA-kuY4hz-15" value="Devisi Id" style="ellipse;whiteSpace=wrap;html=1;" vertex="1" parent="1">
          <mxGeometry x="155" y="126" width="50" height="40" as="geometry" />
        </mxCell>
        <mxCell id="oUa0HNdVva7IA-kuY4hz-16" value="" style="endArrow=none;html=1;rounded=0;entryX=0;entryY=1;entryDx=0;entryDy=0;exitX=0.428;exitY=-0.033;exitDx=0;exitDy=0;exitPerimeter=0;" edge="1" parent="1">
          <mxGeometry relative="1" as="geometry">
            <mxPoint x="79.36000000000001" y="194.01999999999998" as="sourcePoint" />
            <mxPoint x="162.32233047033628" y="162.14213562373106" as="targetPoint" />
          </mxGeometry>
        </mxCell>
        <mxCell id="oUa0HNdVva7IA-kuY4hz-19" value="Devisi Id" style="ellipse;whiteSpace=wrap;html=1;" vertex="1" parent="1">
          <mxGeometry x="380" y="97" width="60" height="35" as="geometry" />
        </mxCell>
        <mxCell id="oUa0HNdVva7IA-kuY4hz-20" value="" style="endArrow=none;html=1;rounded=0;exitX=0.5;exitY=0;exitDx=0;exitDy=0;" edge="1" parent="1" source="oUa0HNdVva7IA-kuY4hz-10">
          <mxGeometry relative="1" as="geometry">
            <mxPoint x="347" y="194" as="sourcePoint" />
            <mxPoint x="397" y="131" as="targetPoint" />
          </mxGeometry>
        </mxCell>
        <mxCell id="oUa0HNdVva7IA-kuY4hz-21" value="Id" style="ellipse;whiteSpace=wrap;html=1;" vertex="1" parent="1">
          <mxGeometry x="524" y="104" width="70" height="30.5" as="geometry" />
        </mxCell>
        <mxCell id="oUa0HNdVva7IA-kuY4hz-22" value="Nama" style="ellipse;whiteSpace=wrap;html=1;" vertex="1" parent="1">
          <mxGeometry x="601" y="105" width="60" height="30" as="geometry" />
        </mxCell>
        <mxCell id="oUa0HNdVva7IA-kuY4hz-23" value="" style="endArrow=none;html=1;rounded=0;entryX=0.5;entryY=1;entryDx=0;entryDy=0;" edge="1" parent="1" target="oUa0HNdVva7IA-kuY4hz-22">
          <mxGeometry relative="1" as="geometry">
            <mxPoint x="591" y="194" as="sourcePoint" />
            <mxPoint x="594" y="166" as="targetPoint" />
          </mxGeometry>
        </mxCell>
        <mxCell id="oUa0HNdVva7IA-kuY4hz-24" value="" style="endArrow=none;html=1;rounded=0;exitX=0.5;exitY=1;exitDx=0;exitDy=0;entryX=0.5;entryY=0;entryDx=0;entryDy=0;" edge="1" parent="1" source="oUa0HNdVva7IA-kuY4hz-21" target="oUa0HNdVva7IA-kuY4hz-14">
          <mxGeometry relative="1" as="geometry">
            <mxPoint x="461" y="154" as="sourcePoint" />
            <mxPoint x="601" y="193" as="targetPoint" />
          </mxGeometry>
        </mxCell>
        <mxCell id="oUa0HNdVva7IA-kuY4hz-25" value="Memiliki" style="rhombus;whiteSpace=wrap;html=1;" vertex="1" parent="1">
          <mxGeometry x="183" y="194" width="63" height="60" as="geometry" />
        </mxCell>
        <mxCell id="oUa0HNdVva7IA-kuY4hz-26" value="Memiliki" style="rhombus;whiteSpace=wrap;html=1;" vertex="1" parent="1">
          <mxGeometry x="432" y="194" width="60" height="60" as="geometry" />
        </mxCell>
        <mxCell id="oUa0HNdVva7IA-kuY4hz-27" value="" style="edgeStyle=entityRelationEdgeStyle;fontSize=12;html=1;endArrow=ERmany;startArrow=ERmany;rounded=0;entryX=0;entryY=0.5;entryDx=0;entryDy=0;exitX=1;exitY=0.5;exitDx=0;exitDy=0;" edge="1" parent="1" source="oUa0HNdVva7IA-kuY4hz-1" target="oUa0HNdVva7IA-kuY4hz-25">
          <mxGeometry width="100" height="100" relative="1" as="geometry">
            <mxPoint x="122" y="304" as="sourcePoint" />
            <mxPoint x="222" y="204" as="targetPoint" />
            <Array as="points">
              <mxPoint x="162" y="254" />
              <mxPoint x="122" y="254" />
            </Array>
          </mxGeometry>
        </mxCell>
        <mxCell id="oUa0HNdVva7IA-kuY4hz-28" value="" style="edgeStyle=entityRelationEdgeStyle;fontSize=12;html=1;endArrow=ERmany;startArrow=ERmany;rounded=0;" edge="1" parent="1" source="oUa0HNdVva7IA-kuY4hz-25">
          <mxGeometry width="100" height="100" relative="1" as="geometry">
            <mxPoint x="183" y="324" as="sourcePoint" />
            <mxPoint x="283" y="224" as="targetPoint" />
          </mxGeometry>
        </mxCell>
        <mxCell id="oUa0HNdVva7IA-kuY4hz-31" value="" style="edgeStyle=entityRelationEdgeStyle;fontSize=12;html=1;endArrow=ERmany;startArrow=ERmany;rounded=0;entryX=0;entryY=0.5;entryDx=0;entryDy=0;" edge="1" parent="1" target="oUa0HNdVva7IA-kuY4hz-26">
          <mxGeometry width="100" height="100" relative="1" as="geometry">
            <mxPoint x="402" y="224" as="sourcePoint" />
            <mxPoint x="478" y="224" as="targetPoint" />
          </mxGeometry>
        </mxCell>
        <mxCell id="oUa0HNdVva7IA-kuY4hz-32" value="" style="edgeStyle=entityRelationEdgeStyle;fontSize=12;html=1;endArrow=ERmany;startArrow=ERmany;rounded=0;exitX=1;exitY=0.5;exitDx=0;exitDy=0;" edge="1" parent="1" source="oUa0HNdVva7IA-kuY4hz-26" target="oUa0HNdVva7IA-kuY4hz-14">
          <mxGeometry width="100" height="100" relative="1" as="geometry">
            <mxPoint x="378" y="324" as="sourcePoint" />
            <mxPoint x="528" y="224" as="targetPoint" />
          </mxGeometry>
        </mxCell>
        <mxCell id="oUa0HNdVva7IA-kuY4hz-36" value="Memiliki" style="rhombus;whiteSpace=wrap;html=1;" vertex="1" parent="1">
          <mxGeometry x="299" y="263" width="80" height="80" as="geometry" />
        </mxCell>
        <mxCell id="oUa0HNdVva7IA-kuY4hz-37" value="" style="fontSize=12;html=1;endArrow=ERmany;startArrow=ERmany;rounded=0;entryX=0;entryY=0.5;entryDx=0;entryDy=0;edgeStyle=elbowEdgeStyle;elbow=vertical;exitX=0.4;exitY=1.011;exitDx=0;exitDy=0;exitPerimeter=0;" edge="1" parent="1" source="oUa0HNdVva7IA-kuY4hz-1">
          <mxGeometry width="100" height="100" relative="1" as="geometry">
            <mxPoint x="78" y="274" as="sourcePoint" />
            <mxPoint x="300" y="304" as="targetPoint" />
            <Array as="points">
              <mxPoint x="188" y="304" />
            </Array>
          </mxGeometry>
        </mxCell>
        <mxCell id="oUa0HNdVva7IA-kuY4hz-38" value="" style="edgeStyle=orthogonalEdgeStyle;fontSize=12;html=1;endArrow=ERmany;startArrow=ERmany;rounded=0;entryX=0.25;entryY=1;entryDx=0;entryDy=0;exitX=1;exitY=0.5;exitDx=0;exitDy=0;" edge="1" parent="1" source="oUa0HNdVva7IA-kuY4hz-36" target="oUa0HNdVva7IA-kuY4hz-14">
          <mxGeometry width="100" height="100" relative="1" as="geometry">
            <mxPoint x="379" y="310" as="sourcePoint" />
            <mxPoint x="570" y="280" as="targetPoint" />
          </mxGeometry>
        </mxCell>
        <mxCell id="oUa0HNdVva7IA-kuY4hz-39" value="&lt;b style=&quot;font-weight:normal;&quot; id=&quot;docs-internal-guid-af334515-7fff-2687-9a62-08cf6aa0d72c&quot;&gt;&lt;span style=&quot;font-size:11.5pt;font-family:Arial,sans-serif;color:#000000;background-color:#ffffff;font-weight:400;font-style:normal;font-variant:normal;text-decoration:none;vertical-align:baseline;white-space:pre;white-space:pre-wrap;&quot;&gt;Buatlah diagram ERD dari gambar diagram diatas&lt;/span&gt;&lt;/b&gt;" style="text;whiteSpace=wrap;html=1;" vertex="1" parent="1">
          <mxGeometry x="9" y="20" width="370" height="40" as="geometry" />
        </mxCell>
        <mxCell id="oUa0HNdVva7IA-kuY4hz-40" value="&lt;b style=&quot;font-weight:normal;&quot; id=&quot;docs-internal-guid-086c6073-7fff-8239-3da3-8b6349baf502&quot;&gt;&lt;span style=&quot;font-size:11.5pt;font-family:Arial,sans-serif;color:#000000;background-color:#ffffff;font-weight:400;font-style:normal;font-variant:normal;text-decoration:none;vertical-align:baseline;white-space:pre;white-space:pre-wrap;&quot;&gt;Tentukan Inheritance pada setiap tabel(subtype/supertype)&lt;/span&gt;&lt;/b&gt;" style="text;whiteSpace=wrap;html=1;" vertex="1" parent="1">
          <mxGeometry x="-0.5" y="339" width="430" height="40" as="geometry" />
        </mxCell>
        <mxCell id="oUa0HNdVva7IA-kuY4hz-43" value="Pegawai" style="rounded=0;whiteSpace=wrap;html=1;" vertex="1" parent="1">
          <mxGeometry x="9" y="460" width="120" height="60" as="geometry" />
        </mxCell>
        <mxCell id="oUa0HNdVva7IA-kuY4hz-44" value="Staf" style="ellipse;whiteSpace=wrap;html=1;" vertex="1" parent="1">
          <mxGeometry x="73.5" y="364" width="55.5" height="31" as="geometry" />
        </mxCell>
        <mxCell id="oUa0HNdVva7IA-kuY4hz-45" value="Manajer" style="ellipse;whiteSpace=wrap;html=1;" vertex="1" parent="1">
          <mxGeometry x="9" y="364" width="61" height="40" as="geometry" />
        </mxCell>
        <mxCell id="oUa0HNdVva7IA-kuY4hz-46" value="Direktur" style="ellipse;whiteSpace=wrap;html=1;" vertex="1" parent="1">
          <mxGeometry x="105" y="390" width="60" height="30" as="geometry" />
        </mxCell>
        <mxCell id="oUa0HNdVva7IA-kuY4hz-47" value="Devisi" style="rounded=0;whiteSpace=wrap;html=1;" vertex="1" parent="1">
          <mxGeometry x="205" y="460" width="120" height="60" as="geometry" />
        </mxCell>
        <mxCell id="oUa0HNdVva7IA-kuY4hz-48" value="Devisi Id" style="ellipse;whiteSpace=wrap;html=1;" vertex="1" parent="1">
          <mxGeometry x="183" y="370" width="70" height="40" as="geometry" />
        </mxCell>
        <mxCell id="oUa0HNdVva7IA-kuY4hz-49" value="Nama Devisi" style="ellipse;whiteSpace=wrap;html=1;" vertex="1" parent="1">
          <mxGeometry x="262" y="365" width="60" height="50" as="geometry" />
        </mxCell>
        <mxCell id="oUa0HNdVva7IA-kuY4hz-50" value="Proyek" style="rounded=0;whiteSpace=wrap;html=1;" vertex="1" parent="1">
          <mxGeometry x="402" y="460" width="120" height="60" as="geometry" />
        </mxCell>
        <mxCell id="oUa0HNdVva7IA-kuY4hz-51" value="Proyek Id" style="ellipse;whiteSpace=wrap;html=1;" vertex="1" parent="1">
          <mxGeometry x="365" y="369" width="60" height="40" as="geometry" />
        </mxCell>
        <mxCell id="oUa0HNdVva7IA-kuY4hz-52" value="Nama Proyek" style="ellipse;whiteSpace=wrap;html=1;" vertex="1" parent="1">
          <mxGeometry x="427" y="354" width="60" height="50" as="geometry" />
        </mxCell>
        <mxCell id="oUa0HNdVva7IA-kuY4hz-53" value="Tanggal Mulai" style="ellipse;whiteSpace=wrap;html=1;" vertex="1" parent="1">
          <mxGeometry x="489" y="359" width="70" height="50" as="geometry" />
        </mxCell>
        <mxCell id="oUa0HNdVva7IA-kuY4hz-54" value="Tanggal Selesai" style="ellipse;whiteSpace=wrap;html=1;" vertex="1" parent="1">
          <mxGeometry x="561" y="357" width="60" height="50" as="geometry" />
        </mxCell>
        <mxCell id="oUa0HNdVva7IA-kuY4hz-55" value="Devisi Id" style="ellipse;whiteSpace=wrap;html=1;" vertex="1" parent="1">
          <mxGeometry x="623" y="363" width="60" height="40" as="geometry" />
        </mxCell>
        <mxCell id="oUa0HNdVva7IA-kuY4hz-56" value="" style="endArrow=none;html=1;rounded=0;entryX=0.321;entryY=0.968;entryDx=0;entryDy=0;entryPerimeter=0;exitX=0.5;exitY=0;exitDx=0;exitDy=0;" edge="1" parent="1" source="oUa0HNdVva7IA-kuY4hz-43" target="oUa0HNdVva7IA-kuY4hz-44">
          <mxGeometry relative="1" as="geometry">
            <mxPoint x="28" y="440" as="sourcePoint" />
            <mxPoint x="188" y="440" as="targetPoint" />
          </mxGeometry>
        </mxCell>
        <mxCell id="oUa0HNdVva7IA-kuY4hz-57" value="" style="endArrow=none;html=1;rounded=0;entryX=0.5;entryY=1;entryDx=0;entryDy=0;exitX=0.5;exitY=0;exitDx=0;exitDy=0;" edge="1" parent="1" source="oUa0HNdVva7IA-kuY4hz-43" target="oUa0HNdVva7IA-kuY4hz-46">
          <mxGeometry relative="1" as="geometry">
            <mxPoint x="15" y="440" as="sourcePoint" />
            <mxPoint x="175" y="440" as="targetPoint" />
          </mxGeometry>
        </mxCell>
        <mxCell id="oUa0HNdVva7IA-kuY4hz-58" value="" style="endArrow=none;html=1;rounded=0;exitX=0.311;exitY=0.983;exitDx=0;exitDy=0;exitPerimeter=0;entryX=0.5;entryY=0;entryDx=0;entryDy=0;" edge="1" parent="1" source="oUa0HNdVva7IA-kuY4hz-45" target="oUa0HNdVva7IA-kuY4hz-43">
          <mxGeometry relative="1" as="geometry">
            <mxPoint x="15" y="440" as="sourcePoint" />
            <mxPoint x="175" y="440" as="targetPoint" />
          </mxGeometry>
        </mxCell>
        <mxCell id="oUa0HNdVva7IA-kuY4hz-59" value="" style="endArrow=none;html=1;rounded=0;entryX=0.5;entryY=1;entryDx=0;entryDy=0;exitX=0.5;exitY=0;exitDx=0;exitDy=0;" edge="1" parent="1" source="oUa0HNdVva7IA-kuY4hz-47" target="oUa0HNdVva7IA-kuY4hz-49">
          <mxGeometry relative="1" as="geometry">
            <mxPoint x="205" y="440" as="sourcePoint" />
            <mxPoint x="365" y="440" as="targetPoint" />
          </mxGeometry>
        </mxCell>
        <mxCell id="oUa0HNdVva7IA-kuY4hz-60" value="" style="endArrow=none;html=1;rounded=0;exitX=0.5;exitY=1;exitDx=0;exitDy=0;entryX=0.5;entryY=0;entryDx=0;entryDy=0;" edge="1" parent="1" source="oUa0HNdVva7IA-kuY4hz-48" target="oUa0HNdVva7IA-kuY4hz-47">
          <mxGeometry relative="1" as="geometry">
            <mxPoint x="190" y="430" as="sourcePoint" />
            <mxPoint x="350" y="430" as="targetPoint" />
          </mxGeometry>
        </mxCell>
        <mxCell id="oUa0HNdVva7IA-kuY4hz-61" value="" style="endArrow=none;html=1;rounded=0;exitX=0.5;exitY=1;exitDx=0;exitDy=0;" edge="1" parent="1">
          <mxGeometry relative="1" as="geometry">
            <mxPoint x="396" y="409" as="sourcePoint" />
            <mxPoint x="461" y="460" as="targetPoint" />
          </mxGeometry>
        </mxCell>
        <mxCell id="oUa0HNdVva7IA-kuY4hz-62" value="" style="endArrow=none;html=1;rounded=0;entryX=0.328;entryY=0.975;entryDx=0;entryDy=0;entryPerimeter=0;exitX=0.5;exitY=0;exitDx=0;exitDy=0;" edge="1" parent="1" source="oUa0HNdVva7IA-kuY4hz-50" target="oUa0HNdVva7IA-kuY4hz-55">
          <mxGeometry relative="1" as="geometry">
            <mxPoint x="522" y="450" as="sourcePoint" />
            <mxPoint x="682" y="450" as="targetPoint" />
          </mxGeometry>
        </mxCell>
        <mxCell id="oUa0HNdVva7IA-kuY4hz-63" value="" style="endArrow=none;html=1;rounded=0;exitX=0.5;exitY=1;exitDx=0;exitDy=0;" edge="1" parent="1" source="oUa0HNdVva7IA-kuY4hz-52">
          <mxGeometry relative="1" as="geometry">
            <mxPoint x="448.68000000000006" y="403.35" as="sourcePoint" />
            <mxPoint x="462" y="460" as="targetPoint" />
          </mxGeometry>
        </mxCell>
        <mxCell id="oUa0HNdVva7IA-kuY4hz-64" value="" style="endArrow=none;html=1;rounded=0;entryX=0.5;entryY=1;entryDx=0;entryDy=0;exitX=0.5;exitY=0;exitDx=0;exitDy=0;" edge="1" parent="1" source="oUa0HNdVva7IA-kuY4hz-50" target="oUa0HNdVva7IA-kuY4hz-53">
          <mxGeometry relative="1" as="geometry">
            <mxPoint x="379" y="420" as="sourcePoint" />
            <mxPoint x="539" y="420" as="targetPoint" />
          </mxGeometry>
        </mxCell>
        <mxCell id="oUa0HNdVva7IA-kuY4hz-65" value="" style="endArrow=none;html=1;rounded=0;entryX=0.5;entryY=1;entryDx=0;entryDy=0;" edge="1" parent="1">
          <mxGeometry relative="1" as="geometry">
            <mxPoint x="463" y="460" as="sourcePoint" />
            <mxPoint x="584" y="407" as="targetPoint" />
          </mxGeometry>
        </mxCell>
        <mxCell id="oUa0HNdVva7IA-kuY4hz-66" value="" style="fontSize=12;html=1;endArrow=ERmany;startArrow=ERmany;rounded=0;entryX=0;entryY=0.5;entryDx=0;entryDy=0;" edge="1" parent="1" target="oUa0HNdVva7IA-kuY4hz-47">
          <mxGeometry width="100" height="100" relative="1" as="geometry">
            <mxPoint x="130" y="490" as="sourcePoint" />
            <mxPoint x="230" y="390" as="targetPoint" />
          </mxGeometry>
        </mxCell>
        <mxCell id="oUa0HNdVva7IA-kuY4hz-67" value="" style="fontSize=12;html=1;endArrow=ERmany;startArrow=ERmany;rounded=0;entryX=0;entryY=0.5;entryDx=0;entryDy=0;" edge="1" parent="1" target="oUa0HNdVva7IA-kuY4hz-50">
          <mxGeometry width="100" height="100" relative="1" as="geometry">
            <mxPoint x="325" y="490" as="sourcePoint" />
            <mxPoint x="425" y="390" as="targetPoint" />
          </mxGeometry>
        </mxCell>
        <mxCell id="oUa0HNdVva7IA-kuY4hz-70" value="&lt;code&gt;pegawai_id&amp;nbsp;&lt;/code&gt;&lt;code&gt;nama&amp;nbsp; &amp;nbsp; &amp;nbsp;&lt;/code&gt;&lt;code&gt;alamat&amp;nbsp; &amp;nbsp; &amp;nbsp; &amp;nbsp; &amp;nbsp;&lt;/code&gt;&lt;code&gt;tanggal_lahir&amp;nbsp; &amp;nbsp;&lt;/code&gt;&lt;code&gt;kategori_pegawai_id&amp;nbsp; &amp;nbsp;&lt;/code&gt;&lt;code&gt;divisi_id&lt;/code&gt;&lt;div&gt;1&amp;nbsp; &amp;nbsp; &amp;nbsp; &amp;nbsp; &amp;nbsp; &amp;nbsp; &amp;nbsp; &amp;nbsp; &amp;nbsp; &amp;nbsp;Budi&amp;nbsp; &amp;nbsp; &amp;nbsp; &amp;nbsp;Jl. Anggrek No. 12&amp;nbsp; &amp;nbsp; &amp;nbsp;1980-01-01&amp;nbsp; &amp;nbsp; &amp;nbsp; &amp;nbsp; &amp;nbsp; &amp;nbsp; &amp;nbsp; &amp;nbsp; &amp;nbsp; &amp;nbsp; &amp;nbsp; &amp;nbsp; &amp;nbsp; &amp;nbsp; &amp;nbsp;1&amp;nbsp; &amp;nbsp; &amp;nbsp; &amp;nbsp; &amp;nbsp; &amp;nbsp; &amp;nbsp; &amp;nbsp; &amp;nbsp; &amp;nbsp; &amp;nbsp; &amp;nbsp; &amp;nbsp; &amp;nbsp; &amp;nbsp; &amp;nbsp; &amp;nbsp; 1&amp;nbsp;&lt;/div&gt;&lt;div&gt;2&amp;nbsp; &amp;nbsp; &amp;nbsp; &amp;nbsp; &amp;nbsp; &amp;nbsp; &amp;nbsp; &amp;nbsp; &amp;nbsp; &amp;nbsp;&lt;span style=&quot;background-color: initial;&quot;&gt;Ani&amp;nbsp; &amp;nbsp; &amp;nbsp; &amp;nbsp; &amp;nbsp;Jl.&amp;nbsp; Melati No. 23&amp;nbsp; &amp;nbsp; &amp;nbsp; &amp;nbsp; 1985-02-02&amp;nbsp; &amp;nbsp; &amp;nbsp; &amp;nbsp; &amp;nbsp; &amp;nbsp; &amp;nbsp; &amp;nbsp; &amp;nbsp; &amp;nbsp; &amp;nbsp; &amp;nbsp; &amp;nbsp; &amp;nbsp; &amp;nbsp;2&amp;nbsp; &amp;nbsp; &amp;nbsp; &amp;nbsp; &amp;nbsp; &amp;nbsp; &amp;nbsp; &amp;nbsp; &amp;nbsp; &amp;nbsp; &amp;nbsp; &amp;nbsp; &amp;nbsp; &amp;nbsp; &amp;nbsp; &amp;nbsp; &amp;nbsp; 2&amp;nbsp;&lt;/span&gt;&lt;/div&gt;&lt;div&gt;&lt;span style=&quot;background-color: initial;&quot;&gt;3&amp;nbsp; &amp;nbsp; &amp;nbsp; &amp;nbsp; &amp;nbsp; &amp;nbsp; &amp;nbsp; &amp;nbsp; &amp;nbsp; &amp;nbsp;Cici&amp;nbsp; &amp;nbsp; &amp;nbsp; &amp;nbsp; Jl. Mawar No. 34&amp;nbsp; &amp;nbsp; &amp;nbsp; &amp;nbsp; 1990-03-03&amp;nbsp; &amp;nbsp; &amp;nbsp; &amp;nbsp; &amp;nbsp; &amp;nbsp; &amp;nbsp; &amp;nbsp; &amp;nbsp; &amp;nbsp; &amp;nbsp; &amp;nbsp; &amp;nbsp; &amp;nbsp; &amp;nbsp;3&amp;nbsp; &amp;nbsp; &amp;nbsp; &amp;nbsp; &amp;nbsp; &amp;nbsp; &amp;nbsp; &amp;nbsp; &amp;nbsp; &amp;nbsp; &amp;nbsp; &amp;nbsp; &amp;nbsp; &amp;nbsp; &amp;nbsp; &amp;nbsp; &amp;nbsp; 1&lt;/span&gt;&lt;/div&gt;" style="text;whiteSpace=wrap;html=1;" vertex="1" parent="1">
          <mxGeometry x="-15" y="573" width="585" height="90" as="geometry" />
        </mxCell>
        <mxCell id="oUa0HNdVva7IA-kuY4hz-71" value="Tabel Pegawai:" style="text;whiteSpace=wrap;html=1;" vertex="1" parent="1">
          <mxGeometry x="-30" y="551" width="110" height="40" as="geometry" />
        </mxCell>
        <mxCell id="oUa0HNdVva7IA-kuY4hz-72" value="Tabel Kategori Pegawai:" style="text;whiteSpace=wrap;html=1;" vertex="1" parent="1">
          <mxGeometry x="-30" y="640" width="160" height="40" as="geometry" />
        </mxCell>
        <mxCell id="oUa0HNdVva7IA-kuY4hz-73" value="&lt;code&gt;kategori_pegawai_id&amp;nbsp; &amp;nbsp;&amp;nbsp;&lt;/code&gt;&lt;code&gt;nama_kategori&lt;/code&gt;&lt;div&gt;1&amp;nbsp; &amp;nbsp; &amp;nbsp; &amp;nbsp; &amp;nbsp; &amp;nbsp; &amp;nbsp; &amp;nbsp; &amp;nbsp; &amp;nbsp; &amp;nbsp; &amp;nbsp; &amp;nbsp; &amp;nbsp; &amp;nbsp; &amp;nbsp; &amp;nbsp; &amp;nbsp; &amp;nbsp; &amp;nbsp; &amp;nbsp; &amp;nbsp; &amp;nbsp; Pustakawan&lt;/div&gt;&lt;div&gt;2&amp;nbsp; &amp;nbsp; &amp;nbsp; &amp;nbsp; &amp;nbsp; &amp;nbsp; &amp;nbsp; &amp;nbsp; &amp;nbsp; &amp;nbsp; &amp;nbsp; &amp;nbsp; &amp;nbsp; &amp;nbsp; &amp;nbsp; &amp;nbsp; &amp;nbsp; &amp;nbsp; &amp;nbsp; &amp;nbsp; &amp;nbsp; &amp;nbsp; Staf Administrasi&lt;/div&gt;&lt;div&gt;3&amp;nbsp; &amp;nbsp; &amp;nbsp; &amp;nbsp; &amp;nbsp; &amp;nbsp; &amp;nbsp; &amp;nbsp; &amp;nbsp; &amp;nbsp; &amp;nbsp; &amp;nbsp; &amp;nbsp; &amp;nbsp; &amp;nbsp; &amp;nbsp; &amp;nbsp; &amp;nbsp; &amp;nbsp; &amp;nbsp; &amp;nbsp; &amp;nbsp;Petugas Keamanan&lt;/div&gt;" style="text;whiteSpace=wrap;html=1;" vertex="1" parent="1">
          <mxGeometry x="-15" y="668" width="520" height="40" as="geometry" />
        </mxCell>
        <mxCell id="oUa0HNdVva7IA-kuY4hz-77" value="Tabel Divisi:" style="text;whiteSpace=wrap;html=1;" vertex="1" parent="1">
          <mxGeometry x="-30" y="741" width="100" height="40" as="geometry" />
        </mxCell>
        <mxCell id="oUa0HNdVva7IA-kuY4hz-78" value="&lt;code&gt;divisi_id&amp;nbsp; &amp;nbsp; &amp;nbsp; &amp;nbsp;&amp;nbsp;&lt;/code&gt;&lt;code&gt;nama_divisi&amp;nbsp;&amp;nbsp;&lt;/code&gt;&lt;div&gt;1&amp;nbsp; &amp;nbsp; &amp;nbsp; &amp;nbsp; &amp;nbsp; &amp;nbsp; &amp;nbsp; &amp;nbsp; &amp;nbsp; &amp;nbsp; &amp;nbsp; &amp;nbsp; &amp;nbsp; &amp;nbsp; &amp;nbsp; &amp;nbsp; Koleksi Buku&lt;/div&gt;&lt;div&gt;2&amp;nbsp; &amp;nbsp; &amp;nbsp; &amp;nbsp; &amp;nbsp; &amp;nbsp; &amp;nbsp; &amp;nbsp; &amp;nbsp; &amp;nbsp; &amp;nbsp; &amp;nbsp; &amp;nbsp; &amp;nbsp;Layanan Peminjaman&lt;/div&gt;&lt;div&gt;3&amp;nbsp; &amp;nbsp; &amp;nbsp; &amp;nbsp; &amp;nbsp; &amp;nbsp; &amp;nbsp; &amp;nbsp; &amp;nbsp; &amp;nbsp; &amp;nbsp; &amp;nbsp; Pengelolaan Ruang Baca&lt;/div&gt;" style="text;whiteSpace=wrap;html=1;" vertex="1" parent="1">
          <mxGeometry x="-15" y="760" width="510" height="40" as="geometry" />
        </mxCell>
        <mxCell id="oUa0HNdVva7IA-kuY4hz-79" value="Tabel Proyek:" style="text;whiteSpace=wrap;html=1;" vertex="1" parent="1">
          <mxGeometry x="-30" y="820" width="110" height="40" as="geometry" />
        </mxCell>
        <mxCell id="oUa0HNdVva7IA-kuY4hz-80" value="&lt;table data-sourcepos=&quot;45:1-49:63&quot;&gt;&lt;tbody&gt;&lt;tr data-sourcepos=&quot;45:1-45:83&quot;&gt;&lt;th data-sourcepos=&quot;45:1-45:13&quot;&gt;&lt;code&gt;proyek_id&amp;nbsp;&amp;nbsp;&lt;/code&gt;&lt;/th&gt;&lt;th data-sourcepos=&quot;45:15-45:29&quot;&gt;&lt;code&gt;&amp;nbsp; &amp;nbsp;nama_proyek&lt;/code&gt;&lt;/th&gt;&lt;th data-sourcepos=&quot;45:31-45:47&quot;&gt;&lt;code&gt;tanggal_mulai&amp;nbsp;&amp;nbsp;&lt;/code&gt;&lt;/th&gt;&lt;th data-sourcepos=&quot;45:49-45:67&quot;&gt;&lt;code&gt;tanggal_selesai&lt;/code&gt;&lt;/th&gt;&lt;th data-sourcepos=&quot;45:69-45:81&quot;&gt;&lt;code&gt;divisi_id&lt;/code&gt;&lt;/th&gt;&lt;/tr&gt;&lt;tr data-sourcepos=&quot;47:1-47:63&quot;&gt;&lt;td data-sourcepos=&quot;47:1-47:3&quot;&gt;1&lt;/td&gt;&lt;td data-sourcepos=&quot;47:5-47:31&quot;&gt;Digitalisasi Koleksi Buku&lt;/td&gt;&lt;td data-sourcepos=&quot;47:33-47:44&quot;&gt;2023-01-01&lt;/td&gt;&lt;td data-sourcepos=&quot;47:46-47:57&quot;&gt;2024-01-01&lt;/td&gt;&lt;td data-sourcepos=&quot;47:59-47:61&quot;&gt;1&lt;/td&gt;&lt;/tr&gt;&lt;tr data-sourcepos=&quot;48:1-48:75&quot;&gt;&lt;td data-sourcepos=&quot;48:1-48:3&quot;&gt;2&lt;/td&gt;&lt;td data-sourcepos=&quot;48:5-48:43&quot;&gt;Peningkatan Layanan Peminjaman Online&lt;/td&gt;&lt;td data-sourcepos=&quot;48:45-48:56&quot;&gt;2023-02-02&lt;/td&gt;&lt;td data-sourcepos=&quot;48:58-48:69&quot;&gt;2024-02-02&lt;/td&gt;&lt;td data-sourcepos=&quot;48:71-48:73&quot;&gt;2&lt;/td&gt;&lt;/tr&gt;&lt;tr data-sourcepos=&quot;49:1-49:63&quot;&gt;&lt;td data-sourcepos=&quot;49:1-49:3&quot;&gt;3&lt;/td&gt;&lt;td data-sourcepos=&quot;49:5-49:31&quot;&gt;Renovasi Ruang Baca Utama&lt;/td&gt;&lt;td data-sourcepos=&quot;49:33-49:44&quot;&gt;2023-03-03&lt;/td&gt;&lt;td data-sourcepos=&quot;49:46-49:57&quot;&gt;2024-03-03&lt;/td&gt;&lt;td data-sourcepos=&quot;49:59-49:61&quot;&gt;3&lt;/td&gt;&lt;/tr&gt;&lt;/tbody&gt;&lt;/table&gt;" style="text;whiteSpace=wrap;html=1;" vertex="1" parent="1">
          <mxGeometry x="-20" y="830" width="560" height="110" as="geometry" />
        </mxCell>
      </root>
    </mxGraphModel>
  </diagram>
</mxfile>
